# xmcd
#
# Track frame offsets:
# 182
# 17777
# 35070
# 52352
# 76110
# 93240
# 112707
# 126285
# 144575
# 160985
# 181825
# 198215
# 212855
# 238035
#
# Disc length: 3362 seconds
#
#
# Revision: 0
# Processed by: cddbd v1.5.2PL0 Copyright (c) Steve Scherf et al.
# Submitted via: FreeRIP 2.945 
#
DISCID=bd0d200e
DTITLE=Alcione - Acervo Especial
DYEAR=1900
DGENRE=
TTITLE0=Alcione - Mangueira Estaçção Primeira
TTITLE1=Alcione - Nem Morta
TTITLE2=Alcione - Autonomia
TTITLE3=Alcione - O que Eu faço amanhã
TTITLE4=Alcione - Um Ser de Luz
TTITLE5=Alcione - Pior que Eu gosto
TTITLE6=Alcione - Forró do Xenhenhém
TTITLE7=Alcione - Garoto Maroto
TTITLE8=Alcione - Qualquer dia desses
TTITLE9=Alcione - Academia do Salgueiro
TTITLE10=Alcione - Ou Ela ou Eu
TTITLE11=Alcione - Na Paz de Deus
TTITLE12=Alcione - Quem é Você
TTITLE13=Alcione - De Teresina a São Luiz
EXTD=
EXTT0=
EXTT1=
EXTT2=
EXTT3=
EXTT4=
EXTT5=
EXTT6=
EXTT7=
EXTT8=
EXTT9=
EXTT10=
EXTT11=
EXTT12=
EXTT13=
PLAYORDER=
